<svg width="32" height="32" viewBox="0 0 32 32" fill="none" xmlns="http://www.w3.org/2000/svg">
<path fill-rule="evenodd" clip-rule="evenodd" d="M31.069 3.80841C31.069 5.91173 29.3807 7.61682 27.2981 7.61682C25.2155 7.61682 23.5271 5.91173 23.5271 3.80841C23.5271 1.70509 25.2155 0 27.2981 0C29.3807 0 31.069 1.70509 31.069 3.80841ZM0.800049 19.3235C0.800049 12.3226 6.4198 6.64699 13.3518 6.64699C20.2849 6.64699 25.9034 12.3226 25.9034 19.3235C25.9034 26.3244 20.2837 32 13.3518 32C6.4198 32 0.800049 26.3244 0.800049 19.3235ZM6.72955 19.3235C6.72955 23.0167 9.69489 26.0115 13.3518 26.0115C17.0086 26.0115 19.974 23.0167 19.974 19.3235C19.974 15.6302 17.0086 12.6354 13.3518 12.6354C9.69489 12.6354 6.72955 15.6302 6.72955 19.3235Z" fill="#00CBFF"/>
</svg>
